<svg width="352" height="91" viewBox="0 0 352 91" fill="none" xmlns="http://www.w3.org/2000/svg">
<path d="M54.001 88.2116L27.2493 88.25C27.1467 88.2446 26.9361 88.3364 26.8335 88.3311L6.77243 88.3086L6.56722 88.2978C5.33601 88.2333 4.36914 87.0509 4.33106 85.8143L4.31855 5.56458L4.32931 5.35938C4.39383 4.12816 5.5816 3.05869 6.81282 3.12322L25.5401 3.07584L25.9505 3.09735L53.3178 3.09124L53.523 3.102C54.7542 3.16652 55.8237 4.35429 55.8618 5.59088L55.7469 23.4866L55.7362 23.6918C55.6717 24.923 54.4839 25.9925 53.2473 26.0305L29.2766 26.0089L29.3272 34.8595L47.6929 35.822C48.9241 35.8865 50.1015 36.9771 50.0316 38.3109L50.0209 38.5161L48.993 54.2034C48.8151 55.6344 47.7299 56.7093 46.2935 56.634L29.2616 55.7414L29.2746 65.3102L54.2767 65.2831L54.4819 65.2938C55.8157 65.3637 56.8852 66.5515 56.8206 67.7827L56.6032 85.673C56.5333 87.0068 55.4428 88.1843 54.001 88.2116Z" fill="white"/>
<path d="M117.267 35.4461L112.438 47.8779C112.027 49.1109 110.897 50.1383 109.664 50.1383C109.253 50.1383 108.739 49.9328 108.328 49.6246C106.479 48.0834 102.883 46.9533 99.2869 46.9533C96.6156 46.9533 87.677 47.5697 87.677 58.7686C87.677 65.6524 92.6086 70.173 99.2869 70.173C103.705 70.173 108.842 68.2209 113.774 63.7003C114.39 63.0838 115.315 62.5701 116.239 62.5701C116.959 62.5701 117.78 62.9811 118.5 64.214C120.349 67.7072 121.582 69.5566 123.226 72.9471C123.534 73.5635 123.74 74.2827 123.74 75.0019C123.74 76.2348 123.226 77.365 121.993 78.5979C113.671 86.5091 103.808 90.0023 94.5607 90.0023C77.5055 90.0023 62.4023 78.0842 62.4023 60.0015C62.4023 36.9872 80.7932 27.6377 97.7457 27.6377C109.15 27.6377 117.37 32.1584 117.37 34.7269C117.37 34.9324 117.37 35.2406 117.267 35.4461Z" fill="white"/>
<path d="M199.31 80.8583L189.549 88.8722C188.419 89.7968 187.392 90.1051 186.467 90.1051C186.056 90.1051 167.049 86.6118 167.049 65.7551C167.049 53.3233 161.295 48.9054 153.898 48.9054H153.384V86.2009C153.384 87.4338 152.459 88.3584 151.329 88.3584H130.781C129.548 88.3584 128.623 87.4338 128.623 86.2009V2.15759C128.623 1.02742 129.548 0 130.781 0H151.329C152.459 0 153.384 1.02742 153.384 2.15759V28.8706C154.617 28.7679 155.85 28.7679 156.98 28.7679C176.296 28.7679 191.707 40.275 192.015 60.618C192.118 67.2963 193.453 72.4334 198.488 76.4403C199.104 76.954 200.234 77.9815 200.234 79.1116C200.234 79.6253 200.029 80.2418 199.31 80.8583Z" fill="white"/>
<path fill-rule="evenodd" clip-rule="evenodd" d="M230.683 90.1054C245.273 90.1054 265.616 78.9064 265.616 58.8717C265.616 45.5152 255.855 27.7407 233.149 27.7407C215.066 27.7407 199.244 38.7342 199.244 59.8991C199.244 77.9818 213.936 90.1054 230.683 90.1054ZM233.152 70.4815C240.447 70.4815 243.735 64.5225 243.735 58.6662C243.735 56.7141 243.324 46.748 232.844 46.748C224.214 46.748 221.748 54.0428 221.748 58.6662C221.748 65.7554 227.296 70.4815 233.152 70.4815Z" fill="white"/>
<path d="M295.758 88.4208L275.184 88.3714L274.979 88.3606C273.85 88.3015 273.078 87.335 273.034 86.2011L273.088 36.0997C273.152 34.8684 274.021 33.988 275.258 33.95L295.832 33.9994L296.037 34.0101C297.063 34.0639 297.938 35.0357 297.885 36.0617L297.826 86.2657L297.815 86.4709C297.761 87.4969 296.789 88.372 295.758 88.4208ZM295.758 88.4208L275.184 88.3714L274.979 88.3606C273.85 88.3015 273.078 87.335 273.034 86.2011L273.088 36.0997" fill="white"/>
<path d="M284.992 26.7642C292.044 26.7642 297.791 21.0176 297.791 13.9649C297.791 6.82522 292.044 1.07861 284.992 1.07861C277.852 1.07861 272.105 6.82522 272.105 13.9649C272.105 21.0176 277.852 26.7642 284.992 26.7642Z" fill="white"/>
<path d="M330.626 88.8006L310.158 88.4132C308.928 88.3272 307.956 87.5001 308.035 86.3668L308.599 37.0598C308.678 35.9265 309.667 35.0467 310.794 35.1255L322.723 35.3903C328.37 34.1719 333.752 33.7891 338.877 34.1474C342.362 34.3911 345.717 35.0054 348.849 35.8886C350.359 36.3738 350.922 37.1723 350.842 38.3055C350.816 38.6833 350.687 39.0539 350.552 39.5189L346.648 52.6264C346.248 53.927 345.177 54.5164 343.947 54.4304C343.64 54.4089 343.236 54.2858 342.833 54.1627C341.226 53.5758 339.504 53.1707 337.761 53.0488C336.326 52.9485 334.878 53.037 333.212 53.3001L332.822 86.8664L332.808 87.0553C332.736 88.0941 331.754 88.8795 330.626 88.8006Z" fill="white"/>
</svg>
