<svg width="589" height="1080" viewBox="0 0 589 1080" fill="none" xmlns="http://www.w3.org/2000/svg">
<path d="M510.022 383.739C479.575 405.063 488.688 418.881 454.257 432.898C419.827 446.916 416.688 430.666 380 436.674C343.313 442.682 345.525 459.083 308.42 456.78C271.315 454.477 275.54 438.475 239.878 427.977C204.216 417.478 199.09 433.215 166.659 415.048C134.228 396.88 144.98 384.295 117.407 359.37C89.8339 334.445 78.3844 346.4 57.0512 315.967C35.718 285.533 50.8683 278.858 36.8449 244.443C22.8216 210.028 7.31678 215.833 1.30643 179.161C-4.70392 142.49 11.8435 143.046 14.1476 105.958C16.4517 68.8686 -0.037555 67.3745 10.4654 31.728C20.9683 -3.91855 35.6355 3.75938 53.8106 -28.6573C71.9858 -61.074 57.778 -69.5714 82.714 -97.1328C107.65 -124.694 117.532 -111.415 147.978 -132.739C178.425 -154.063 169.312 -167.881 203.743 -181.898C238.173 -195.916 241.312 -179.666 278 -185.674C314.687 -191.682 312.475 -208.083 349.58 -205.78C386.685 -203.477 382.46 -187.475 418.122 -176.977C453.784 -166.478 458.91 -182.215 491.341 -164.048C523.772 -145.88 513.019 -133.295 540.593 -108.37C568.166 -83.4451 579.616 -95.3998 600.949 -64.9666C622.282 -34.5334 607.132 -27.8582 621.155 6.55705C635.178 40.9723 650.683 35.1671 656.694 71.8386C662.704 108.51 646.156 107.954 643.852 145.042C641.548 182.131 658.038 183.625 647.535 219.272C637.032 254.919 622.364 247.241 604.189 279.657C586.014 312.074 600.222 320.571 575.286 348.133C550.35 375.694 540.468 362.415 510.022 383.739Z" fill="#C20088"/>
<path d="M510.022 797.739C479.575 819.063 488.688 832.881 454.257 846.898C419.827 860.916 416.688 844.666 380 850.674C343.313 856.682 345.525 873.083 308.42 870.78C271.315 868.477 275.54 852.475 239.878 841.977C204.216 831.478 199.09 847.215 166.659 829.048C134.228 810.88 144.98 798.295 117.407 773.37C89.8339 748.445 78.3844 760.4 57.0512 729.967C35.718 699.533 50.8683 692.858 36.8449 658.443C22.8216 624.028 7.31678 629.833 1.30643 593.161C-4.70392 556.49 11.8435 557.046 14.1476 519.958C16.4517 482.869 -0.037555 481.375 10.4654 445.728C20.9683 410.081 35.6355 417.759 53.8106 385.343C71.9858 352.926 57.778 344.429 82.714 316.867C107.65 289.306 117.532 302.585 147.978 281.261C178.425 259.937 169.312 246.119 203.743 232.102C238.173 218.084 241.312 234.334 278 228.326C314.687 222.318 312.475 205.917 349.58 208.22C386.685 210.523 382.46 226.525 418.122 237.023C453.784 247.522 458.91 231.785 491.341 249.952C523.772 268.12 513.019 280.705 540.593 305.63C568.166 330.555 579.616 318.6 600.949 349.033C622.282 379.467 607.132 386.142 621.155 420.557C635.178 454.972 650.683 449.167 656.694 485.839C662.704 522.51 646.156 521.954 643.852 559.042C641.548 596.131 658.038 597.625 647.535 633.272C637.032 668.919 622.364 661.241 604.189 693.657C586.014 726.074 600.222 734.571 575.286 762.133C550.35 789.694 540.468 776.415 510.022 797.739Z" fill="#E900A3"/>
<path d="M510.022 1211.74C479.575 1233.06 488.688 1246.88 454.257 1260.9C419.827 1274.92 416.688 1258.67 380 1264.67C343.313 1270.68 345.525 1287.08 308.42 1284.78C271.315 1282.48 275.54 1266.48 239.878 1255.98C204.216 1245.48 199.09 1261.21 166.659 1243.05C134.228 1224.88 144.98 1212.3 117.407 1187.37C89.8339 1162.45 78.3844 1174.4 57.0512 1143.97C35.718 1113.53 50.8683 1106.86 36.8449 1072.44C22.8216 1038.03 7.31678 1043.83 1.30643 1007.16C-4.70392 970.49 11.8435 971.046 14.1476 933.958C16.4517 896.869 -0.037555 895.375 10.4654 859.728C20.9683 824.081 35.6355 831.759 53.8106 799.343C71.9858 766.926 57.778 758.429 82.714 730.867C107.65 703.306 117.532 716.585 147.978 695.261C178.425 673.937 169.312 660.119 203.743 646.102C238.173 632.084 241.312 648.334 278 642.326C314.687 636.318 312.475 619.917 349.58 622.22C386.685 624.523 382.46 640.525 418.122 651.023C453.784 661.522 458.91 645.785 491.341 663.952C523.772 682.12 513.019 694.705 540.593 719.63C568.166 744.555 579.616 732.6 600.949 763.033C622.282 793.467 607.132 800.142 621.155 834.557C635.178 868.972 650.683 863.167 656.694 899.839C662.704 936.51 646.156 935.954 643.852 973.042C641.548 1010.13 658.038 1011.63 647.535 1047.27C637.032 1082.92 622.364 1075.24 604.189 1107.66C586.014 1140.07 600.222 1148.57 575.286 1176.13C550.35 1203.69 540.468 1190.42 510.022 1211.74Z" fill="#FF36C3"/>
</svg>
