<svg width="165" height="43" viewBox="0 0 165 43" fill="none" xmlns="http://www.w3.org/2000/svg">
<path d="M25.2286 41.2112L12.7305 41.2291C12.6826 41.2266 12.5842 41.2695 12.5362 41.267L3.16395 41.2565L3.06808 41.2515C2.49287 41.2213 2.04116 40.6689 2.02338 40.0912L2.01753 2.59951L2.02256 2.50364C2.0527 1.92843 2.60761 1.42879 3.18282 1.45893L11.932 1.4368L12.1237 1.44685L24.9094 1.44399L25.0052 1.44902C25.5805 1.47916 26.0801 2.03407 26.0979 2.61179L26.0443 10.9724L26.0392 11.0683C26.0091 11.6435 25.4542 12.1432 24.8765 12.161L13.6776 12.1508L13.7013 16.2857L22.2815 16.7354C22.8567 16.7656 23.4068 17.275 23.3741 17.8982L23.3691 17.9941L22.8889 25.323C22.8058 25.9915 22.2988 26.4937 21.6277 26.4585L13.6706 26.0415L13.6767 30.512L25.3574 30.4993L25.4532 30.5043C26.0764 30.5369 26.576 31.0919 26.5459 31.6671L26.4443 40.0252C26.4116 40.6483 25.9022 41.1984 25.2286 41.2112Z" fill="white"/>
<path d="M54.7863 16.5601L52.5303 22.3681C52.3383 22.9441 51.8103 23.4241 51.2343 23.4241C51.0423 23.4241 50.8023 23.3281 50.6103 23.1841C49.7463 22.4641 48.0663 21.9361 46.3863 21.9361C45.1383 21.9361 40.9623 22.2241 40.9623 27.4561C40.9623 30.6721 43.2663 32.7841 46.3863 32.7841C48.4503 32.7841 50.8503 31.8721 53.1543 29.7601C53.4423 29.4721 53.8743 29.2321 54.3063 29.2321C54.6423 29.2321 55.0263 29.4241 55.3623 30.0001C56.2263 31.6321 56.8023 32.4961 57.5703 34.0801C57.7143 34.3681 57.8103 34.7041 57.8103 35.0401C57.8103 35.6161 57.5703 36.1441 56.9943 36.7201C53.1063 40.4161 48.4983 42.0481 44.1783 42.0481C36.2103 42.0481 29.1543 36.4801 29.1543 28.0321C29.1543 17.2801 37.7463 12.9121 45.6663 12.9121C50.9943 12.9121 54.8343 15.0241 54.8343 16.2241C54.8343 16.3201 54.8343 16.4641 54.7863 16.5601Z" fill="white"/>
<path d="M93.1158 37.776L88.5558 41.52C88.0278 41.952 87.5478 42.096 87.1158 42.096C86.9238 42.096 78.0438 40.464 78.0438 30.72C78.0438 24.912 75.3558 22.848 71.8998 22.848H71.6598V40.272C71.6598 40.848 71.2278 41.28 70.6998 41.28H61.0998C60.5238 41.28 60.0918 40.848 60.0918 40.272V1.008C60.0918 0.48 60.5238 0 61.0998 0H70.6998C71.2278 0 71.6598 0.48 71.6598 1.008V13.488C72.2358 13.44 72.8118 13.44 73.3398 13.44C82.3638 13.44 89.5638 18.816 89.7078 28.32C89.7558 31.44 90.3798 33.84 92.7318 35.712C93.0198 35.952 93.5478 36.432 93.5478 36.96C93.5478 37.2 93.4518 37.488 93.1158 37.776Z" fill="white"/>
<path fill-rule="evenodd" clip-rule="evenodd" d="M107.772 42.096C114.588 42.096 124.092 36.864 124.092 27.504C124.092 21.264 119.532 12.96 108.924 12.96C100.476 12.96 93.084 18.096 93.084 27.984C93.084 36.432 99.948 42.096 107.772 42.096ZM108.926 32.9281C112.334 32.9281 113.87 30.1441 113.87 27.4081C113.87 26.4961 113.678 21.8401 108.782 21.8401C104.75 21.8401 103.598 25.2481 103.598 27.4081C103.598 30.7201 106.19 32.9281 108.926 32.9281Z" fill="white"/>
<path d="M138.175 41.3092L128.563 41.2862L128.467 41.2811C127.94 41.2535 127.579 40.802 127.559 40.2722L127.584 16.8654C127.614 16.2902 128.02 15.8789 128.598 15.8611L138.21 15.8842L138.305 15.8892C138.785 15.9144 139.194 16.3684 139.168 16.8477L139.141 40.3024L139.136 40.3983C139.111 40.8776 138.657 41.2864 138.175 41.3092ZM138.175 41.3092L128.563 41.2862L128.467 41.2811C127.94 41.2535 127.579 40.802 127.559 40.2722L127.584 16.8654" fill="white"/>
<path d="M133.145 12.5039C136.44 12.5039 139.125 9.81916 139.125 6.52425C139.125 3.18865 136.44 0.503906 133.145 0.503906C129.81 0.503906 127.125 3.18865 127.125 6.52425C127.125 9.81916 129.81 12.5039 133.145 12.5039Z" fill="white"/>
<path d="M154.465 41.4864L144.903 41.3054C144.328 41.2652 143.874 40.8787 143.911 40.3493L144.174 17.3137C144.211 16.7842 144.673 16.3732 145.2 16.41L150.773 16.5337C153.411 15.9645 155.926 15.7856 158.32 15.953C159.948 16.0669 161.516 16.3539 162.978 16.7665C163.684 16.9932 163.947 17.3662 163.91 17.8957C163.898 18.0721 163.837 18.2453 163.774 18.4625L161.95 24.5862C161.764 25.1938 161.263 25.4692 160.689 25.429C160.545 25.419 160.356 25.3614 160.168 25.3039C159.417 25.0298 158.613 24.8405 157.798 24.7836C157.128 24.7367 156.452 24.778 155.673 24.9009L155.491 40.5827L155.485 40.671C155.451 41.1563 154.992 41.5232 154.465 41.4864Z" fill="white"/>
</svg>
